<svg
  xmlns="http://www.w3.org/2000/svg"
  xmlns:xlink="http://www.w3.org/1999/xlink"
  version="1.1"
  viewBox="210 -20 140 140"
>
  <path
    style="fill:#0c544c;fill-opacity:1;fill-rule:nonzero;stroke:none"
    d="m 333.97655,14.04297 c -2.74219,0 -4.96094,-2.22266 -4.96094,-4.96094 0,-2.74219 2.21875,-4.96094 4.96094,-4.96094 2.73828,0 4.96094,2.21875 4.96094,4.96094 0,2.73828 -2.22266,4.96094 -4.96094,4.96094 m -49.26953,84.76171 c -2.74219,0 -4.96094,-2.22265 -4.96094,-4.96093 0,-2.74219 2.21875,-4.96094 4.96094,-4.96094 2.73828,0 4.95703,2.21875 4.95703,4.96094 0,2.73828 -2.21875,4.96093 -4.95703,4.96093 M 333.97655,0 c -5.01563,0 -9.08203,4.0664 -9.08203,9.08203 0,1.07031 0.26953,2.0664 0.60937,3.01953 L 282.89842,85.125 c -4.11718,0.86328 -7.27343,4.34375 -7.27343,8.71875 0,5.01562 4.0664,9.08203 9.08203,9.08203 5.01172,0 9.07812,-4.06641 9.07812,-9.08203 0,-1.00782 -0.26953,-1.92969 -0.57031,-2.83594 l 42.82031,-73.26172 c 3.99219,-0.95703 7.02344,-4.37891 7.02344,-8.66406 C 343.05858,4.0664 338.99217,0 333.97655,0"
  />
  <path
    style="fill:#073551;fill-opacity:1;fill-rule:nonzero;stroke:none"
    d="m 296.81639,14.04297 c -2.74218,0 -4.96093,-2.22266 -4.96093,-4.96094 0,-2.74219 2.21875,-4.96094 4.96093,-4.96094 2.73828,0 4.95703,2.21875 4.95703,4.96094 0,2.73828 -2.21875,4.96094 -4.95703,4.96094 m -49.27343,84.76171 c -2.73829,0 -4.96094,-2.22265 -4.96094,-4.96093 0,-2.74219 2.22265,-4.96094 4.96094,-4.96094 2.74218,0 4.96093,2.21875 4.96093,4.96094 0,2.73828 -2.21875,4.96093 -4.96093,4.96093 M 296.81639,0 c -5.01953,0 -9.08203,4.0664 -9.08203,9.08203 0,1.07031 0.26953,2.0664 0.60938,3.01953 L 245.73827,85.125 c -4.1211,0.86328 -7.27735,4.34375 -7.27735,8.71875 0,5.01562 4.06641,9.08203 9.08204,9.08203 5.01562,0 9.08203,-4.06641 9.08203,-9.08203 0,-1.00782 -0.26953,-1.92969 -0.57032,-2.83594 l 42.82032,-73.26172 c 3.99218,-0.95703 7.02343,-4.37891 7.02343,-8.66406 C 305.89842,4.0664 301.82811,0 296.81639,0"
  />
  <path
    style="fill:#073551;fill-opacity:1;fill-rule:nonzero;stroke:none"
    d="m 228.95702,29.22656 c 2.73828,0 4.96094,2.22266 4.96094,4.96094 0,2.73828 -2.22266,4.96093 -4.96094,4.96093 -2.74219,0 -4.96094,-2.22265 -4.96094,-4.96093 0,-2.73828 2.21875,-4.96094 4.96094,-4.96094 m 0,14.04297 c 5.01562,0 9.08203,-4.06641 9.08203,-9.08203 0,-1.00391 -0.27344,-1.92969 -0.57422,-2.83594 -1.20312,-3.60547 -4.5,-6.24609 -8.50781,-6.24609 -0.64063,0 -1.20313,0.23828 -1.8086,0.36718 -4.11718,0.85938 -7.27343,4.33985 -7.27343,8.71485 0,5.01562 4.0664,9.08203 9.08203,9.08203"
  />
  <path
    style="fill:#073551;fill-opacity:1;fill-rule:nonzero;stroke:none"
    d="m 223.99608,65.92187 c 0,-2.74219 2.22266,-4.96094 4.96094,-4.96094 2.73828,0 4.96094,2.21875 4.96094,4.96094 0,2.73828 -2.22266,4.95703 -4.96094,4.95703 -2.73828,0 -4.96094,-2.21875 -4.96094,-4.95703 m 14.04297,0 c 0,-1.00781 -0.27344,-1.92969 -0.57422,-2.83594 -1.20312,-3.60546 -4.49609,-6.24609 -8.50781,-6.24609 -0.64063,0 -1.20313,0.23828 -1.8086,0.36328 -4.11718,0.86328 -7.27343,4.34375 -7.27343,8.71875 0,5.01172 4.0664,9.08203 9.08203,9.08203 5.01562,0 9.08203,-4.07031 9.08203,-9.08203"
  />
</svg>
