<svg width="100%" height="100%" viewBox="0 0 256 215" version="1.1" xmlns="http://www.w3.org/2000/svg" xmlns:xlink="http://www.w3.org/1999/xlink" xml:space="preserve" xmlns:serif="http://www.serif.com/" style="fill-rule:evenodd;clip-rule:evenodd;stroke-linejoin:round;stroke-miterlimit:1.41421;"><g><path d="M147.488,75.732l22.866,0l0,23.375l11.561,0c5.339,0 10.831,-0.951 15.887,-2.664c2.485,-0.843 5.273,-2.015 7.724,-3.489c-3.228,-4.215 -4.876,-9.536 -5.361,-14.782c-0.659,-7.134 0.781,-16.42 5.609,-22.004l2.404,-2.78l2.864,2.303c7.211,5.793 13.276,13.889 14.345,23.118c8.683,-2.554 18.878,-1.95 26.531,2.467l3.14,1.812l-1.652,3.226c-6.473,12.632 -20.005,16.546 -33.235,15.853c-19.797,49.309 -62.898,72.653 -115.157,72.653c-26.999,0 -51.77,-10.093 -65.876,-34.047l-0.231,-0.391l-2.055,-4.181c-4.768,-10.544 -6.352,-22.095 -5.278,-33.637l0.323,-3.457l19.553,0l0,-23.375l22.865,0l0,-22.866l45.733,0l0,-22.866l27.44,0l0,45.732" style="fill:#364548;"/><path d="M221.57,84.38c1.533,-11.916 -7.384,-21.275 -12.914,-25.719c-6.373,7.368 -7.363,26.678 2.635,34.808c-5.579,4.956 -17.337,9.448 -29.376,9.448l-146.545,0c-1.17,12.567 1.036,24.14 6.075,34.045l1.667,3.049c1.055,1.792 2.209,3.521 3.455,5.185l0,0c6.025,0.387 11.58,0.521 16.662,0.408l0.002,0c9.987,-0.221 18.136,-1.399 24.312,-3.539c0.919,-0.32 1.922,0.168 2.24,1.086c0.317,0.919 -0.169,1.922 -1.088,2.24c-0.821,0.285 -1.677,0.551 -2.561,0.804c-0.001,0 -0.002,0 -0.003,0.001c-4.863,1.388 -10.078,2.322 -16.806,2.737c0.399,0.007 -0.416,0.06 -0.418,0.061c-0.229,0.014 -0.517,0.047 -0.747,0.059c-2.648,0.149 -5.506,0.18 -8.428,0.18c-3.196,0 -6.343,-0.061 -9.862,-0.239l-0.09,0.059c12.211,13.724 31.302,21.955 55.234,21.955c50.648,0 93.608,-22.452 112.632,-72.857c13.496,1.385 26.467,-2.057 32.367,-13.575c-9.398,-5.423 -21.484,-3.694 -28.443,-0.196" style="fill:#22a0c8;"/><path d="M221.57,84.38c1.533,-11.916 -7.384,-21.275 -12.914,-25.719c-6.373,7.368 -7.363,26.678 2.635,34.808c-5.579,4.956 -17.337,9.448 -29.376,9.448l-137.867,0c-0.598,19.246 6.544,33.855 19.181,42.687l0.002,0c9.987,-0.221 18.136,-1.399 24.312,-3.539c0.919,-0.32 1.922,0.168 2.24,1.086c0.317,0.919 -0.169,1.922 -1.088,2.24c-0.821,0.285 -1.677,0.551 -2.561,0.804c-0.001,0 -0.002,0 -0.003,0.001c-4.863,1.388 -10.526,2.442 -17.254,2.857c-0.002,0 -0.163,-0.155 -0.165,-0.155c17.237,8.842 42.23,8.81 70.885,-2.197c32.131,-12.344 62.029,-35.86 82.891,-62.757c-0.315,0.142 -0.622,0.287 -0.918,0.436" style="fill:#37b1d9;"/><path d="M35.645,118.186c0.911,6.732 2.879,13.035 5.8,18.776l1.667,3.049c1.055,1.792 2.209,3.521 3.455,5.185c6.026,0.387 11.581,0.521 16.664,0.408c9.987,-0.221 18.136,-1.399 24.312,-3.539c0.919,-0.32 1.922,0.168 2.24,1.086c0.317,0.919 -0.169,1.922 -1.088,2.24c-0.821,0.285 -1.677,0.551 -2.561,0.804c-0.001,0 -0.002,0 -0.003,0.001c-4.863,1.388 -10.496,2.382 -17.224,2.798c-0.231,0.014 -0.634,0.017 -0.867,0.029c-2.646,0.149 -5.475,0.24 -8.398,0.24c-3.195,0 -6.463,-0.061 -9.981,-0.24c12.21,13.724 31.421,21.985 55.353,21.985c43.359,0 81.084,-16.458 102.979,-52.822l-172.348,0" style="fill:#1b81a5;"/><path d="M45.367,118.186c2.592,11.819 8.821,21.099 17.864,27.418c9.987,-0.221 18.136,-1.399 24.312,-3.539c0.919,-0.32 1.922,0.168 2.24,1.086c0.317,0.919 -0.169,1.922 -1.088,2.24c-0.821,0.285 -1.677,0.551 -2.561,0.804c-0.001,0 -0.002,0 -0.003,0.001c-4.863,1.388 -10.615,2.382 -17.344,2.798c17.236,8.84 42.157,8.713 70.81,-2.293c17.334,-6.66 34.017,-16.574 48.984,-28.515l-143.214,0" style="fill:#1d91b4;"/><path d="M55.261,79.543l19.817,0l0,19.818l-19.817,0l0,-19.818Zm1.65,1.652l1.564,0l0,16.515l-1.564,0l0,-16.515Zm2.941,0l1.626,0l0,16.515l-1.626,0l0,-16.515Zm3.001,0l1.627,0l0,16.515l-1.627,0l0,-16.515Zm3.004,0l1.626,0l0,16.515l-1.626,0l0,-16.515Zm3.003,0l1.626,0l0,16.515l-1.626,0l0,-16.515Zm3.002,0l1.565,0l0,16.515l-1.565,0l0,-16.515Z" style="fill:#23a3c2;"/><path d="M78.126,56.677l19.819,0l0,19.817l-19.819,0l0,-19.817Zm1.652,1.652l1.563,0l0,16.514l-1.563,0l0,-16.514Zm2.941,0l1.625,0l0,16.514l-1.625,0l0,-16.514Zm3.001,0l1.626,0l0,16.514l-1.626,0l0,-16.514Zm3.003,0l1.626,0l0,16.514l-1.626,0l0,-16.514Zm3.003,0l1.627,0l0,16.514l-1.627,0l0,-16.514Zm3.002,0l1.566,0l0,16.514l-1.566,0l0,-16.514Z" style="fill:#23a3c2;"/><path d="M78.126,79.543l19.819,0l0,19.818l-19.819,0l0,-19.818Zm1.652,1.652l1.563,0l0,16.515l-1.563,0l0,-16.515Zm2.941,0l1.625,0l0,16.515l-1.625,0l0,-16.515Zm3.001,0l1.626,0l0,16.515l-1.626,0l0,-16.515Zm3.003,0l1.626,0l0,16.515l-1.626,0l0,-16.515Zm3.003,0l1.627,0l0,16.515l-1.627,0l0,-16.515Zm3.002,0l1.566,0l0,16.515l-1.566,0l0,-16.515Z" style="fill:#34bbde;"/><path d="M100.993,79.543l19.818,0l0,19.818l-19.818,0l0,-19.818Zm1.651,1.652l1.563,0l0,16.515l-1.563,0l0,-16.515Zm2.94,0l1.626,0l0,16.515l-1.626,0l0,-16.515Zm3.003,0l1.626,0l0,16.515l-1.626,0l0,-16.515Zm3.003,0l1.626,0l0,16.515l-1.626,0l0,-16.515Zm3.002,0l1.628,0l0,16.515l-1.628,0l0,-16.515Zm3.003,0l1.564,0l0,16.515l-1.564,0l0,-16.515Z" style="fill:#23a3c2;"/><path d="M100.993,56.677l19.818,0l0,19.817l-19.818,0l0,-19.817Zm1.651,1.652l1.563,0l0,16.514l-1.563,0l0,-16.514Zm2.94,0l1.626,0l0,16.514l-1.626,0l0,-16.514Zm3.003,0l1.626,0l0,16.514l-1.626,0l0,-16.514Zm3.003,0l1.626,0l0,16.514l-1.626,0l0,-16.514Zm3.002,0l1.628,0l0,16.514l-1.628,0l0,-16.514Zm3.003,0l1.564,0l0,16.514l-1.564,0l0,-16.514Z" style="fill:#34bbde;"/><path d="M123.859,79.543l19.818,0l0,19.818l-19.818,0l0,-19.818Zm1.652,1.652l1.563,0l0,16.515l-1.563,0l0,-16.515Zm2.94,0l1.626,0l0,16.515l-1.626,0l0,-16.515Zm3.002,0l1.626,0l0,16.515l-1.626,0l0,-16.515Zm3.003,0l1.627,0l0,16.515l-1.627,0l0,-16.515Zm3.003,0l1.627,0l0,16.515l-1.627,0l0,-16.515Zm3.003,0l1.564,0l0,16.515l-1.564,0l0,-16.515Z" style="fill:#34bbde;"/><path d="M123.859,56.677l19.818,0l0,19.817l-19.818,0l0,-19.817Zm1.652,1.652l1.563,0l0,16.514l-1.563,0l0,-16.514Zm2.94,0l1.626,0l0,16.514l-1.626,0l0,-16.514Zm3.002,0l1.626,0l0,16.514l-1.626,0l0,-16.514Zm3.003,0l1.627,0l0,16.514l-1.627,0l0,-16.514Zm3.003,0l1.627,0l0,16.514l-1.627,0l0,-16.514Zm3.003,0l1.564,0l0,16.514l-1.564,0l0,-16.514Z" style="fill:#23a3c2;"/><path d="M123.859,33.811l19.818,0l0,19.818l-19.818,0l0,-19.818Zm1.652,1.65l1.563,0l0,16.516l-1.563,0l0,-16.516Zm2.94,0l1.626,0l0,16.516l-1.626,0l0,-16.516Zm3.002,0l1.626,0l0,16.516l-1.626,0l0,-16.516Zm3.003,0l1.627,0l0,16.516l-1.627,0l0,-16.516Zm3.003,0l1.627,0l0,16.516l-1.627,0l0,-16.516Zm3.003,0l1.564,0l0,16.516l-1.564,0l0,-16.516Z" style="fill:#34bbde;"/><path d="M146.725,79.543l19.818,0l0,19.818l-19.818,0l0,-19.818Zm1.651,1.652l1.564,0l0,16.515l-1.564,0l0,-16.515Zm2.94,0l1.626,0l0,16.515l-1.626,0l0,-16.515Zm3.003,0l1.627,0l0,16.515l-1.627,0l0,-16.515Zm3.002,0l1.627,0l0,16.515l-1.627,0l0,-16.515Zm3.004,0l1.626,0l0,16.515l-1.626,0l0,-16.515Zm3.002,0l1.564,0l0,16.515l-1.564,0l0,-16.515Z" style="fill:#23a3c2;"/><path d="M96.704,131.492c3.019,0 5.466,2.448 5.466,5.467c0,3.019 -2.447,5.467 -5.466,5.467c-3.02,0 -5.468,-2.448 -5.468,-5.467c0,-3.019 2.448,-5.467 5.468,-5.467" style="fill:#d3ecec;"/><path d="M96.704,133.043c0.5,0 0.977,0.094 1.417,0.265c-0.477,0.276 -0.8,0.792 -0.8,1.384c0,0.882 0.716,1.597 1.598,1.597c0.605,0 1.13,-0.336 1.402,-0.832c0.192,0.462 0.298,0.97 0.298,1.502c0,2.162 -1.753,3.915 -3.915,3.915c-2.162,0 -3.916,-1.753 -3.916,-3.915c0,-2.163 1.754,-3.916 3.916,-3.916" style="fill:#364548;"/><path d="M0,120.162l254.327,0c-5.537,-1.404 -17.521,-3.302 -15.544,-10.559c-10.069,11.651 -34.353,8.174 -40.482,2.428c-6.824,9.899 -46.554,6.136 -49.325,-1.575c-8.556,10.041 -35.067,10.041 -43.623,0c-2.773,7.711 -42.502,11.474 -49.327,1.575c-6.128,5.746 -30.41,9.223 -40.48,-2.428c1.976,7.257 -10.007,9.155 -15.546,10.559" style="fill:#364548;"/><path d="M111.237,170.89c-13.539,-6.425 -20.971,-15.159 -25.106,-24.694c-5.029,1.435 -11.075,2.353 -18.1,2.747c-2.646,0.148 -5.429,0.224 -8.351,0.224c-3.367,0 -6.916,-0.099 -10.642,-0.297c12.417,12.409 27.692,21.964 55.976,22.138c2.088,0 4.161,-0.04 6.223,-0.118" style="fill:#bdd9d7;"/><path d="M91.16,154.994c-1.873,-2.543 -3.69,-5.739 -5.026,-8.799c-5.03,1.436 -11.077,2.354 -18.103,2.748c4.826,2.62 11.727,5.047 23.129,6.051" style="fill:#d3ecec;"/></g></svg>
