<?xml version="1.0" encoding="UTF-8" standalone="no"?>
<svg
   xmlns:dc="http://purl.org/dc/elements/1.1/"
   xmlns:cc="http://creativecommons.org/ns#"
   xmlns:rdf="http://www.w3.org/1999/02/22-rdf-syntax-ns#"
   xmlns:svg="http://www.w3.org/2000/svg"
   xmlns="http://www.w3.org/2000/svg"
   id="svg8"
   version="1.1"
   viewBox="0 0 95.999999 96.000001"
   height="96mm"
   width="96mm">
  <defs
     id="defs2" />
  <metadata
     id="metadata5">
    <rdf:RDF>
      <cc:Work
         rdf:about="">
        <dc:format>image/svg+xml</dc:format>
        <dc:type
           rdf:resource="http://purl.org/dc/dcmitype/StillImage" />
        <dc:title></dc:title>
      </cc:Work>
    </rdf:RDF>
  </metadata>
  <g
     transform="translate(-121.52025,-194.30284)"
     id="layer1">
    <g
       transform="translate(22.545503,-5.6362826)"
       id="g1143">
      <path
         style="fill:#fbb030;stroke-width:1.33333337"
         d="m 489.12305,1058.2852 c -0.002,2.3639 1.52648,3.3999 8.37109,5.6777 21.9456,7.303 56.97434,10.0235 80.06445,6.2187 13.2248,-2.1791 32.38909,-7.8135 36.30079,-10.6738 1.92661,-1.4088 1.62616,-7.7592 -3.29297,-69.67968 -4.04727,-50.91632 -5.0628,-69.13073 -4.03125,-72.08984 1.466,-3.81927 -0.35996,-3.71256 -4.80469,-0.74414 -1.99194,6.96177 -4.55314,8.53321 -8.59375,11.33989 -5.78506,2.94399 -15.07907,2.2599 -19.55664,-1.4375 -1.22336,-1.01023 -3.2733,-3.55744 -4.55664,-5.6621 l -2.33399,-3.82618 -17.11718,-0.54101 c -29.7884,0.90864 -45.7237,-7.82971 -50.86465,-5.58904 -1.74085,50.93095 -8.08151,95.5948 -9.58457,147.007 z"
         id="path287"
         transform="scale(0.26458333)" />
      <path
         style="fill:#a9aaaa;stroke-width:0.35277778"
         d="m 134.77885,201.10038 c -1.35034,3.8951 -0.35268,8.30626 2.24226,11.42952 0.28295,0.74455 2.60408,2.37071 0.89307,2.14663 -3.84905,0.11007 -7.04907,2.91373 -9.42383,5.70485 -1.98334,2.40775 -1.96169,5.66908 -2.67684,8.55141 0.32126,0.76943 1.0266,1.62487 1.67741,0.67025 0.6161,-3.97826 5.98248,-6.08909 9.07955,-3.43855 2.11693,1.5959 2.33855,4.45796 1.95699,6.87038 0.78204,0.46455 0.96142,-1.07999 1.42317,-1.49965 1.92421,-3.13609 7.28842,-3.28709 8.98343,0.15813 0.84411,1.43274 1.35233,3.02835 1.88412,4.59455 -0.29306,-2.82793 -0.9649,-6.35405 1.45935,-8.49922 2.65533,-2.82018 7.86593,-1.9085 9.45523,1.60765 0.23,0.68297 0.6035,1.56409 1.45596,0.81338 0.86854,-0.50638 2.80896,-0.72434 2.40996,-2.16679 0.10024,-5.25153 -2.81206,-10.88948 -7.83983,-12.87828 -3.06144,-1.06444 -6.25423,-0.061 -9.23975,0.81804 -1.29615,0.43519 -1.31862,-1.16437 -1.03508,-2.04174 0.57146,-2.52738 2.61226,-4.28991 4.23953,-6.15931 -0.75027,-0.82273 -1.66015,-2.07188 -2.76262,-2.35541 -1.45479,1.25565 -2.46188,2.92779 -3.54604,4.46019 -1.21953,0.58623 -1.60124,-1.26318 -2.0283,-1.98902 -1.90107,-3.25867 -5.25809,-5.33835 -8.60774,-6.79701 z"
         id="path289" />
      <path
         style="fill:#fdda91;fill-opacity:1;fill-rule:evenodd;stroke:none;stroke-width:0.26458332px;stroke-linecap:butt;stroke-linejoin:miter;stroke-opacity:1"
         d="m 132.6325,275.61843 3.94222,0.20045 2.13816,-33.94323 -4.00904,-0.60135 z"
         id="path309" />
      <ellipse
         style="fill:#ffffff;fill-opacity:1;stroke:#000000;stroke-width:1.5;stroke-linecap:round;stroke-linejoin:round;stroke-miterlimit:4;stroke-dasharray:none;stroke-opacity:1"
         id="path1136"
         cx="153.74306"
         cy="251.86487"
         rx="2.7729216"
         ry="2.8397386" />
      <path
         id="path285"
         d="m 136.52079,289.78362 c -4.20974,-0.57165 -9.81935,-1.92909 -12.21427,-2.95567 l -1.65209,-0.70817 0.21521,-2.20534 c 0.81933,-8.39607 2.98756,-43.48984 2.69305,-43.58801 -1.01125,-0.33708 -2.72218,-1.80368 -3.34174,-2.86451 -1.5627,-2.67572 -0.39556,-6.59946 2.3507,-7.90265 1.18167,-0.56074 1.22354,-0.65053 1.39036,-2.98206 0.19995,-2.79451 1.61878,-6.1069 3.61185,-8.4322 1.39325,-1.62549 4.6733,-3.44109 6.89466,-3.81638 l 1.42785,-0.24124 -1.11897,-1.27444 c -2.45776,-2.79922 -3.66727,-7.37386 -2.79862,-10.58497 0.35997,-1.33069 0.50575,-1.48843 1.18576,-1.28299 3.20457,0.96816 7.41734,4.44403 8.69667,7.17547 0.46328,0.9891 0.94844,1.79836 1.07816,1.79836 0.12972,0 0.41655,-0.39659 0.6374,-0.88131 0.49611,-1.08884 3.19723,-4.05758 3.69181,-4.05758 0.19936,0 0.96458,0.63295 1.7005,1.40656 l 1.33803,1.40657 -1.8985,1.89849 c -1.47785,1.47785 -2.02814,2.34446 -2.48362,3.91126 -0.32182,1.10703 -0.49031,2.10759 -0.37442,2.22348 0.11589,0.11588 1.48983,-0.23458 3.05321,-0.77881 3.37972,-1.17651 5.5974,-1.10259 8.32056,0.27734 3.6198,1.83429 6.13338,5.69085 6.85016,10.51014 0.3832,2.57649 0.43547,2.67826 1.59003,3.09575 5.01787,1.81449 5.10087,8.7753 0.12835,10.76491 -1.30919,0.52383 -1.42473,0.67343 -1.32424,1.71453 l 0.11011,1.14061 3.88056,-0.11275 c 3.49444,-0.10154 4.03851,-0.0313 5.46805,0.70555 1.04727,0.53984 1.78837,1.23849 2.17777,2.05304 0.54949,1.14942 2.30311,15.198 2.95577,23.67918 0.3026,3.93229 -0.23152,5.20442 -2.80278,6.67553 -1.65753,0.94833 -5.2222,1.94498 -7.79881,2.1805 l -1.05834,0.0967 0.13893,2.82222 c 0.27143,5.51355 0.59657,4.78607 -2.73301,6.11494 -3.72319,1.48598 -8.49339,2.69866 -12.57536,3.19692 -4.26078,0.52008 -12.91802,0.43107 -17.41074,-0.179 z m 20.91445,-1.87821 c 3.76208,-0.76682 6.07125,-1.44848 8.79698,-2.59688 l 1.71736,-0.72355 -0.24901,-4.17197 -0.249,-4.17197 1.70665,-0.006 c 4.38537,-0.0157 9.40889,-1.93234 9.86892,-3.76524 0.36947,-1.47208 -0.1521,-9.11908 -1.24535,-18.25866 -0.96598,-8.07563 -1.05101,-8.48289 -1.92865,-9.23781 -1.22435,-1.05314 -3.24347,-1.30818 -7.28301,-0.91993 -2.35064,0.22593 -3.42701,0.2077 -3.6089,-0.0611 -0.14255,-0.21069 -0.26161,-1.07474 -0.26458,-1.92012 -0.004,-1.169 -0.12332,-1.49179 -0.49785,-1.34808 -0.27084,0.10394 -1.13951,0.38284 -1.93036,0.61979 -1.13428,0.33984 -1.51592,0.66712 -1.80726,1.5499 -0.43876,1.32946 -2.25293,3.16864 -3.6422,3.69242 -2.39026,0.90116 -5.04001,0.19643 -6.80052,-1.80868 l -1.07982,-1.22985 -4.55911,-0.23221 c -5.28858,-0.26937 -10.51923,-1.01224 -14.21929,-2.01945 -1.43255,-0.38996 -2.64743,-0.66402 -2.69975,-0.60901 -0.12796,0.13451 -2.99363,41.72818 -2.98931,43.38812 l 0.003,1.30758 2.84259,0.89797 c 2.77205,0.87569 9.14126,2.13373 12.32685,2.4348 3.90825,0.36936 14.33404,-0.10527 17.79121,-0.80993 z m 9.60253,-16.48667 c -0.10531,-0.54919 -0.5435,-5.88595 -0.97376,-11.85946 -0.57597,-7.99644 -0.67841,-10.96481 -0.3884,-11.25482 0.2222,-0.2222 1.7027,-0.40875 3.39639,-0.42796 4.52796,-0.0514 4.31512,-0.45275 5.53044,10.42937 1.25851,11.26882 1.26043,11.41459 0.16005,12.13559 -1.09391,0.71676 -3.37511,1.40593 -5.71545,1.72667 -1.79064,0.24541 -1.82068,0.23421 -2.00927,-0.74939 z m 6.05062,-1.72746 1.1652,-0.4854 -0.20929,-2.03867 c -0.11511,-1.12127 -0.58346,-5.442 -1.04078,-9.60164 -0.96265,-8.7559 -0.92717,-8.68313 -4.06086,-8.32975 -1.05721,0.11922 -1.97056,0.26511 -2.02967,0.32422 -0.13821,0.13821 1.3244,19.99745 1.51975,20.63503 0.17371,0.56697 2.75608,0.28753 4.65565,-0.50379 z m -16.1543,-24.86359 c 0.91215,-0.46419 1.80836,-1.64676 2.27361,-3.00009 0.42448,-1.23472 0.60184,-1.34919 3.58243,-2.31216 1.72471,-0.55721 3.42953,-1.01503 3.78848,-1.01737 0.35895,-0.002 1.19239,-0.544 1.85208,-1.20369 0.97868,-0.97868 1.19945,-1.46889 1.19945,-2.66336 0,-1.95238 -0.76489,-3.32589 -2.24264,-4.02713 -1.51396,-0.71842 -2.25877,-0.72352 -3.92602,-0.0269 -0.72377,0.30241 -1.33846,0.50084 -1.366,0.44097 -1.46932,-3.19491 -2.71501,-4.23374 -5.30941,-4.4277 -2.1696,-0.16221 -3.86684,0.6415 -5.09859,2.41441 -0.7937,1.14239 -0.82394,1.39832 -0.64203,5.43221 l 0.19091,4.23333 -0.98939,-3.08116 c -0.54417,-1.69463 -1.25982,-3.49387 -1.59034,-3.99831 -0.62518,-0.95414 -3.04353,-2.24796 -4.22692,-2.26139 -1.4115,-0.016 -3.58689,1.38462 -4.40145,2.83392 -0.5301,0.9432 -0.33471,1.31988 -0.71969,1.23511 -0.32113,-0.0707 -1.19002,-0.29044 -1.11422,-0.56995 0.0758,-0.27952 0.14603,-1.22579 0.15604,-2.10283 0.0671,-5.87926 -7.97166,-7.41317 -10.21855,-1.94983 -0.43656,1.0615 -0.87272,1.60196 -1.29353,1.60284 -2.8121,0.006 -4.65648,3.62312 -3.24202,6.35839 0.7085,1.37007 1.36103,1.67607 6.08088,2.85159 5.41849,1.34951 10.30242,2.03426 15.73052,2.20549 l 4.52893,0.14287 0.61737,1.01246 c 0.33955,0.55686 0.88219,1.23115 1.20587,1.49844 1.18469,0.97827 3.6436,1.15878 5.17423,0.37985 z m -7.05951,-15.58181 c 0,-0.79566 1.85579,-2.77905 3.28017,-3.50571 3.00938,-1.53527 6.78784,-0.67736 8.96401,2.03531 2.02086,2.51905 2.9464,0.24064 1.66081,-4.08842 -1.10208,-3.71109 -3.8118,-6.65987 -6.98625,-7.60258 -2.3522,-0.69853 -2.54386,-0.68196 -6.21318,0.53712 -1.75203,0.58208 -3.52237,1.05833 -3.9341,1.05833 -0.70236,0 -0.73762,-0.13686 -0.57079,-2.21524 0.20093,-2.5032 1.12444,-4.57317 2.93382,-6.57594 0.98442,-1.08963 1.12956,-1.42662 0.7501,-1.74154 -0.63313,-0.52546 -1.98621,0.90802 -3.28218,3.47717 -0.7922,1.57047 -0.98005,2.41753 -0.98564,4.44438 -0.008,2.87584 0.40785,2.74668 -4.24745,1.31952 -2.0517,-0.62899 -3.19393,-0.7973 -4.23333,-0.62378 -2.115,0.35307 -4.39543,1.53598 -5.94136,3.08191 -1.33127,1.33128 -3.113,4.67689 -3.57367,6.71042 l -0.22603,0.99773 1.33657,-1.05865 c 1.58145,-1.25261 3.95293,-1.95371 5.51122,-1.62933 2.60065,0.54137 4.84574,2.43698 5.37264,4.53633 0.27689,1.10322 0.33659,1.1093 2.09437,0.21313 0.76115,-0.38805 2.02502,-0.70207 2.80861,-0.69781 1.46037,0.008 4.14392,1.01864 4.58057,1.72517 0.28019,0.45335 0.90109,0.17944 0.90109,-0.39752 z m -6.08484,-15.97757 c -0.23296,-2.90216 -1.53167,-5.62339 -3.58869,-7.51949 -1.67186,-1.54106 -4.36436,-3.07744 -4.73635,-2.70262 -0.12672,0.12768 -0.20383,1.14444 -0.17136,2.25947 0.074,2.54179 1.18627,4.99305 3.16312,6.97106 1.30939,1.31016 4.35806,3.22567 5.20462,3.27011 0.17208,0.009 0.22998,-1.0163 0.12866,-2.27853 z"
         style="fill:#10100f;stroke-width:0.35277778" />
    </g>
  </g>
</svg>
