<?xml version="1.0" encoding="UTF-8" standalone="no"?><!DOCTYPE svg PUBLIC "-//W3C//DTD SVG 1.1//EN" "http://www.w3.org/Graphics/SVG/1.1/DTD/svg11.dtd"><svg width="100%" height="100%" viewBox="0 0 400 400" version="1.1" xmlns="http://www.w3.org/2000/svg" xmlns:xlink="http://www.w3.org/1999/xlink" xml:space="preserve" xmlns:serif="http://www.serif.com/" style="fill-rule:evenodd;clip-rule:evenodd;stroke-linejoin:round;stroke-miterlimit:1.41421;"><g id="gradient-logo"><path id="path3336-6" d="M122.063,204.281l97.448,168.802l-44.783,0.421l-26.016,-45.351l-26.202,45.108l-22.251,-0.009l-11.397,-19.689l37.33,-64.187l-26.499,-46.114l22.37,-38.981Z" style="fill:url(#_Linear1);"/><path id="use3439-6" d="M157.236,134.749l-97.464,168.793l-22.755,-38.573l26.267,-45.206l-52.166,-0.137l-11.118,-19.274l11.353,-19.714l74.253,0.234l26.686,-46.006l44.944,-0.117Z" style="fill:url(#_Linear2);"/><path id="use3445-0" d="M164.713,269.68l194.911,0.01l-22.028,38.993l-52.283,-0.145l25.964,45.246l-11.133,19.265l-22.749,0.025l-36.924,-64.422l-53.185,-0.108l-22.573,-38.864Z" style="fill:url(#_Linear3);"/><path id="use3449-5" d="M278.158,195.719l-97.447,-168.802l44.783,-0.421l26.016,45.351l26.202,-45.108l22.251,0.009l11.396,19.689l-37.329,64.187l26.499,46.114l-22.371,38.981Z" style="fill:url(#_Linear4);"/><path id="path4260-0" d="M122.063,204.281l97.448,168.802l-44.783,0.421l-26.016,-45.351l-26.202,45.108l-22.251,-0.009l-11.397,-19.689l37.33,-64.187l-26.499,-46.114l22.37,-38.981Z" style="fill:url(#_Linear5);"/><path id="use4354-5" d="M235.106,129.932l-194.911,-0.009l22.028,-38.994l52.283,0.145l-25.964,-45.245l11.133,-19.266l22.749,-0.025l36.923,64.422l53.186,0.108l22.573,38.864Z" style="fill:url(#_Linear6);"/><path id="use4362-2" d="M242.764,265.225l97.464,-168.793l22.755,38.573l-26.267,45.206l52.166,0.137l11.118,19.274l-11.353,19.714l-74.253,-0.234l-26.686,46.006l-44.944,0.117Z" style="fill:url(#_Linear7);"/></g><defs><linearGradient id="_Linear1" x1="0" y1="0" x2="1" y2="0" gradientUnits="userSpaceOnUse" gradientTransform="matrix(71.365,123.428,-123.428,71.365,91.5192,209.583)"><stop offset="0" style="stop-color:#699ad7;stop-opacity:1"/><stop offset="0.24" style="stop-color:#7eb1dd;stop-opacity:1"/><stop offset="1" style="stop-color:#7ebae4;stop-opacity:1"/></linearGradient><linearGradient id="_Linear2" x1="0" y1="0" x2="1" y2="0" gradientUnits="userSpaceOnUse" gradientTransform="matrix(-71.2097,123.518,-123.518,-71.2097,137.372,110.948)"><stop offset="0" style="stop-color:#699ad7;stop-opacity:1"/><stop offset="0.24" style="stop-color:#7eb1dd;stop-opacity:1"/><stop offset="1" style="stop-color:#7ebae4;stop-opacity:1"/></linearGradient><linearGradient id="_Linear3" x1="0" y1="0" x2="1" y2="0" gradientUnits="userSpaceOnUse" gradientTransform="matrix(142.575,-0.0896416,0.0896416,142.575,154.032,298.783)"><stop offset="0" style="stop-color:#699ad7;stop-opacity:1"/><stop offset="0.24" style="stop-color:#7eb1dd;stop-opacity:1"/><stop offset="1" style="stop-color:#7ebae4;stop-opacity:1"/></linearGradient><linearGradient id="_Linear4" x1="0" y1="0" x2="1" y2="0" gradientUnits="userSpaceOnUse" gradientTransform="matrix(-71.365,-123.428,123.428,-71.365,308.702,190.417)"><stop offset="0" style="stop-color:#699ad7;stop-opacity:1"/><stop offset="0.24" style="stop-color:#7eb1dd;stop-opacity:1"/><stop offset="1" style="stop-color:#7ebae4;stop-opacity:1"/></linearGradient><linearGradient id="_Linear5" x1="0" y1="0" x2="1" y2="0" gradientUnits="userSpaceOnUse" gradientTransform="matrix(70.0986,123.908,-123.908,70.0986,98.8953,205.384)"><stop offset="0" style="stop-color:#415e9a;stop-opacity:1"/><stop offset="0.23" style="stop-color:#4a6baf;stop-opacity:1"/><stop offset="1" style="stop-color:#5277c3;stop-opacity:1"/></linearGradient><linearGradient id="_Linear6" x1="0" y1="0" x2="1" y2="0" gradientUnits="userSpaceOnUse" gradientTransform="matrix(-142.357,-1.24687,1.24687,-142.357,245.735,109.317)"><stop offset="0" style="stop-color:#415e9a;stop-opacity:1"/><stop offset="0.23" style="stop-color:#4a6baf;stop-opacity:1"/><stop offset="1" style="stop-color:#5277c3;stop-opacity:1"/></linearGradient><linearGradient id="_Linear7" x1="0" y1="0" x2="1" y2="0" gradientUnits="userSpaceOnUse" gradientTransform="matrix(72.2582,-122.661,122.661,72.2582,255.304,284.737)"><stop offset="0" style="stop-color:#415e9a;stop-opacity:1"/><stop offset="0.23" style="stop-color:#4a6baf;stop-opacity:1"/><stop offset="1" style="stop-color:#5277c3;stop-opacity:1"/></linearGradient></defs></svg>