<svg width="100%" height="100%" viewBox="0 0 1440 1140" version="1.1" xmlns="http://www.w3.org/2000/svg" xmlns:xlink="http://www.w3.org/1999/xlink" xml:space="preserve" xmlns:serif="http://www.serif.com/" style="fill-rule:evenodd;clip-rule:evenodd;"><g><path d="M248.215,372.329l722.36,-125.28l0.98,0.11l176.787,366.158l-622,203l-205,-182l-73.127,-261.988Z" style="fill:#a08165;fill-rule:nonzero;stroke:#a08165;stroke-width:0.09px;"/><path d="M971.555,247.049l251.01,252.54l-242.991,104.728l-8.019,-357.268Z" style="fill:#916945;fill-rule:nonzero;stroke:#916945;stroke-width:0.09px;"/><path d="M248.215,373.317l206.127,350l-9.057,398.352l-182.93,-316.11l-14.14,-432.242Z" style="fill:#c1a389;fill-rule:nonzero;stroke:#c1a389;stroke-width:0.09px;"/><path d="M971.555,247.159l28.25,28.09l-9.463,307.068l-31,7l12.213,-342.158Z" style="fill:#78492d;fill-rule:nonzero;stroke:#78492d;stroke-width:0.09px;"/><path d="M418.095,662.159c0.3,0.07 785.58,-159.251 804.47,-162.571c-5.27,128.91 -16.66,444.021 -17.14,447.201c-253.4,58.23 -506.76,116.6 -760.14,174.88c-9.04,-152.12 -27.07,-458.74 -27.19,-459.51Z" style="fill:#af8b67;fill-rule:nonzero;stroke:#af8b67;stroke-width:0.09px;"/><g transform="matrix(0.97454,-0.224215,0,1.02613,-2.81532,-32.4089)"><text x="520px" y="1130px" style="font-family:'SourceCodePro-Bold', 'Source Code Pro', monospace;font-weight:700;font-size:280px;fill:#fff;">xbps</text></g></g><g><path d="M6.655,240.149l241.56,132.18l169.041,288.46l-251.75,-142.37l-158.851,-278.27Z" style="fill:#d3b9a0;fill-rule:nonzero;stroke:#d3b9a0;stroke-width:0.09px;"/><path d="M1222.57,499.588l151.05,18.97l-844.76,176.14l-109.54,-32.25l803.25,-162.86Z" style="fill:#d5b79d;fill-rule:nonzero;stroke:#d5b79d;stroke-width:0.09px;"/><path d="M1162.79,18.339l269.669,227.07l-209.89,254.18l-251.01,-252.43l191.231,-228.82Z" style="fill:#d5b699;fill-rule:nonzero;stroke:#d5b699;stroke-width:0.09px;"/><path d="M161.675,123.639l706.68,-105.11l103.2,228.52l-723.34,125.28l-86.54,-248.69Z" style="fill:#e0c8b0;fill-rule:nonzero;stroke:#e0c8b0;stroke-width:0.09px;"/></g></svg>
